<svg width="1800" height="580" xmlns="http://www.w3.org/2000/svg" version="1.0" preserveAspectRatio="xMidYMid meet">

 <g>
  <title>Layer 1</title>
  <g stroke-width="0" stroke="null" id="svg_1" fill="#5f8081">
   <path stroke="null" fill="#879daa" id="svg_2" transform="translate(0 644) scale(0.1 -0.1)" d="m2256.83391,5676.6962c-373.30762,-35.90799 -698.51208,-149.05205 -1001.35874,-348.23978c-207.31784,-136.17937 -398.37547,-318.42937 -548.78253,-522.35967c-186.99257,-253.38848 -321.81692,-575.8829 -378.7277,-905.15242c-43.36059,-251.35595 -35.90799,-566.39777 19.64777,-820.46376c105.01394,-482.38662 373.98513,-912.60502 765.5855,-1226.29182c304.87918,-243.90335 691.73699,-399.05298 1111.11524,-446.47863c39.29554,-4.06506 136.85688,-8.13011 216.80297,-8.13011c191.05762,0 340.78718,17.61524 512.19703,58.94331c611.11338,149.05205 1138.21562,569.78532 1408.54183,1125.34294c205.28532,421.41078 272.35874,903.11989 189.02509,1358.40614c-60.97584,336.04461 -212.06041,666.66915 -429.54089,941.73792c-75.20353,94.8513 -256.09851,273.71376 -351.62732,347.56227c-308.94424,238.48327 -648.3764,379.40521 -1049.4619,435.63848c-85.36617,11.51766 -378.05019,17.61524 -463.41636,9.48513zm465.44889,-149.05205c52.16822,-7.4526 128.04926,-21.6803 169.37732,-31.16543c86.04368,-19.64777 233.74071,-63.68587 233.74071,-69.78346c0,-2.71004 -231.03067,-127.37175 -512.87454,-277.1013l-512.87454,-273.03625l-27.77788,14.9052c-14.9052,8.80762 -39.29554,17.61524 -53.52323,19.64777l-27.10037,3.38755l-100.27138,250.67844c-55.55576,138.2119 -101.62639,255.421 -103.65892,261.51859c-6.77509,19.64777 220.19052,80.62361 386.1803,103.65892c114.49907,16.26022 117.88662,16.26022 291.329,14.2277c123.9842,-2.03253 184.96004,-5.42007 257.45353,-16.93773zm-875.34201,-369.92008l106.36896,-262.1961l-16.26022,-18.97026c-8.80762,-10.84015 -20.32528,-29.81041 -24.39033,-43.36059c-4.06506,-12.87268 -11.51766,-23.71283 -15.58271,-23.71283c-4.74257,-0.67751 -258.80855,-36.5855 -565.04275,-80.62361c-306.91171,-43.36059 -557.59015,-77.91357 -557.59015,-75.20353c0,2.03253 29.1329,42.00558 64.36338,89.43123c182.25,242.54833 395.66543,426.83086 663.95911,571.81785c60.97584,33.19796 217.48048,103.65892 231.03067,104.33643c4.06506,0 54.87825,-117.88662 113.14405,-261.51859zm1372.63383,235.09573l25.06784,-13.55019l87.3987,-298.10409l86.72119,-298.10409l-23.71283,-26.42286c-13.55019,-14.9052 -25.06784,-29.81041 -26.42286,-33.87546c-2.03253,-5.42007 -196.4777,8.80762 -629.40614,44.71561c-525.0697,44.0381 -626.6961,54.20074 -628.72863,62.33086c-1.35502,7.4526 151.08457,90.78625 531.8448,292.68402c293.36152,154.47212 537.94238,281.84387 542.68495,282.52138c4.74257,0 20.32528,-5.42007 34.55297,-12.19517zm138.2119,-62.33086c284.5539,-142.95446 575.8829,-406.50558 770.32807,-695.80205c23.03532,-34.55297 40.65056,-64.36338 38.61803,-66.39591c-2.71004,-2.71004 -545.39498,106.36896 -581.98048,116.5316c-6.77509,2.03253 -12.19517,8.13011 -12.19517,14.2277c0,39.29554 -52.84573,90.10874 -92.81877,90.10874c-12.19517,0 -22.35781,1.35502 -22.35781,3.38755c0,2.03253 -35.23048,124.66171 -78.59108,273.03625c-42.68309,147.69703 -79.26859,274.39126 -81.30112,281.16636c-2.03253,6.09758 -2.03253,11.51766 0.67751,11.51766c2.03253,0 28.45539,-12.87268 59.62082,-27.77788zm-618.56599,-605.69331c334.68959,-27.77788 612.4684,-50.8132 617.88848,-50.8132c4.74257,-0.67751 16.26022,-15.58271 24.39033,-34.55297l16.26022,-33.87546l-114.49907,-182.25l-113.82156,-182.92751l-29.81041,0c-16.26022,0 -42.68309,-6.09758 -58.2658,-14.2277l-28.45539,-14.2277l-460.02881,272.35874c-252.71097,150.40706 -466.1264,277.1013 -473.579,281.84387c-12.19517,8.80762 -12.19517,9.48513 -0.67751,9.48513c6.77509,0 285.90892,-23.03532 620.59851,-50.8132zm-796.07342,12.19517l32.52045,-32.52045l-21.00279,-152.43959c-12.19517,-84.01115 -40.65056,-282.52138 -63.68587,-441.73606l-42.00558,-289.97398l-29.81041,0c-16.26022,0 -34.55297,-2.71004 -41.32807,-6.77509c-10.84015,-5.42007 -98.91636,58.94331 -526.42472,383.47026c-283.19889,214.77045 -515.58457,391.60037 -516.93959,392.95539c-2.03253,2.03253 0,6.09758 3.38755,9.48513c5.42007,5.42007 1106.37268,167.3448 1151.7658,168.69981c16.93773,0.67751 28.45539,-6.09758 53.52323,-31.16543zm619.92101,-280.48885l467.48141,-278.45632l0,-25.74535l0,-25.06784l-99.59387,-31.16543c-55.55576,-17.61524 -306.91171,-100.27138 -558.94517,-183.60502l-457.99628,-151.08457l-14.9052,20.32528l-14.9052,19.64777l66.39591,453.25372c55.55576,377.37268 68.42844,453.25372 77.23606,453.25372c5.42007,0 21.00279,6.09758 33.87546,12.87268c12.87268,7.4526 25.74535,13.55019 29.1329,13.55019c2.71004,0.67751 215.44796,-124.66171 472.22398,-277.77881zm1327.24071,118.56413c170.05483,-35.90799 309.62175,-65.7184 309.62175,-66.39591c6.09758,-6.09758 83.33364,-167.3448 103.65892,-216.80297c76.55855,-184.28253 128.04926,-405.82807 141.59944,-610.43588l6.09758,-88.07621l-156.50465,-184.96004c-151.76208,-179.53996 -157.18216,-184.96004 -178.86245,-182.92751l-23.03532,2.03253l-283.19889,686.31692l-283.87639,686.31692l17.61524,20.32528c10.16264,10.84015 22.35781,19.64777 27.77788,19.64777c5.42007,0 149.05205,-29.1329 319.10688,-65.04089zm-401.76301,1.35502c4.06506,-3.38755 544.71747,-1320.46562 543.36246,-1322.49814c-1.35502,-1.35502 -185.63755,184.28253 -409.89312,412.60316l-406.50558,414.63569l8.80762,21.6803c13.55019,31.16543 11.51766,55.55576 -6.09758,86.72119l-15.58271,27.77788l115.17658,183.60502l115.85409,184.28253l27.10037,-4.06506c14.9052,-2.03253 27.77788,-4.06506 27.77788,-4.74257zm-2263.55856,-413.95818c272.35874,-207.99535 496.61431,-380.08271 499.32435,-382.11524c21.00279,-17.61524 -25.74535,-21.00279 -641.6013,-44.0381c-349.5948,-12.87268 -637.53625,-22.35781 -639.56877,-20.32528c-1.35502,1.35502 4.06506,52.16822 12.19517,111.78903c33.19796,234.41822 109.75651,469.51394 219.51301,668.02417c29.81041,55.55576 35.23048,61.65335 44.71561,53.52323c6.09758,-4.74257 233.74071,-178.86245 505.42193,-386.85781zm1836.05019,-96.20632c11.51766,-10.84015 26.42286,-21.6803 32.52045,-25.74535c10.16264,-6.09758 8.80762,-43.36059 -15.58271,-470.86896c-14.9052,-255.421 -27.10037,-464.77138 -27.10037,-465.44889c0,-1.35502 -5.42007,-2.03253 -12.87268,-2.03253c-6.77509,0 -20.32528,-6.09758 -30.48792,-14.2277l-18.29275,-14.2277l-231.70818,135.50186c-127.37175,74.52602 -367.21004,214.77045 -533.19982,311.65428c-165.98978,97.56134 -301.49164,180.21747 -301.49164,184.96004c0,5.42007 211.3829,78.59108 555.55762,193.09015c305.55669,101.62639 556.91264,184.28253 558.26766,184.96004c1.35502,0.67751 12.19517,-7.4526 24.39033,-17.61524zm399.73048,-287.94145c149.05205,-150.40706 338.75465,-342.14219 422.08829,-426.15335l151.08457,-152.43959l-11.51766,-21.00279l-12.19517,-20.32528l-396.34294,-55.55576c-218.15799,-30.48792 -407.8606,-57.58829 -420.73327,-59.62082c-21.00279,-2.71004 -25.06784,-0.67751 -35.90799,18.29275c-7.4526,11.51766 -23.03532,26.42286 -35.90799,31.84294c-12.87268,6.09758 -23.03532,14.2277 -23.03532,18.29275c-0.67751,4.06506 10.84015,214.09294 25.06784,466.1264l25.06784,459.3513l17.61524,6.09758c9.48513,3.38755 18.29275,6.77509 20.32528,6.77509c2.03253,0.67751 125.33922,-121.95167 274.39126,-271.68123zm-1752.71655,-77.23606c-1.35502,-6.09758 -151.76208,-120.59665 -334.68959,-254.06599l-333.33457,-243.22584l-25.74535,10.84015c-17.61524,7.4526 -35.90799,9.48513 -56.91078,6.77509c-16.93773,-2.03253 -37.26301,-4.74257 -45.39312,-5.42007c-10.84015,-1.35502 -71.81599,51.49071 -245.25836,214.09294c-138.2119,130.08178 -231.03067,221.54554 -231.03067,228.99814c0,10.84015 6.77509,12.19517 56.23327,12.87268c30.48792,0 292.00651,8.80762 580.62547,18.97026c666.66915,24.39033 638.21376,23.71283 635.50372,10.16264zm39.97305,-59.62082l14.9052,-15.58271l-70.46097,-316.39684c-39.29554,-173.44238 -71.13848,-317.07435 -71.13848,-318.42937c0,-1.35502 -9.48513,-4.06506 -21.6803,-6.77509c-11.51766,-2.03253 -31.84294,-12.19517 -44.0381,-21.6803l-23.03532,-17.61524l-229.67565,82.65613l-228.99814,82.65613l-4.74257,30.48792c-3.38755,25.06784 -2.03253,31.84294 8.13011,39.29554c6.77509,4.74257 155.14963,114.49907 330.62454,243.22584c174.7974,128.72677 319.78439,234.41822 321.81692,234.41822c2.03253,0 10.16264,-7.4526 18.29275,-16.26022zm686.31692,-291.329c285.23141,-165.98978 521.00465,-306.2342 525.0697,-311.65428c3.38755,-5.42007 4.74257,-12.19517 2.03253,-14.2277c-2.03253,-2.71004 -282.52138,-27.77788 -623.30855,-56.91078l-618.56599,-52.16822l-10.84015,17.61524c-6.09758,10.16264 -19.64777,24.39033 -30.48792,31.84294l-18.97026,14.2277l70.46097,315.04182l71.13848,315.04182l29.1329,4.74257c18.29275,2.71004 37.26301,11.51766 50.8132,23.71283c12.19517,10.84015 25.06784,18.97026 28.45539,17.61524c4.06506,-1.35502 239.83829,-138.2119 525.0697,-304.87918zm-1563.01394,-186.99257c-4.74257,-48.10316 -2.71004,-66.39591 6.77509,-85.36617l10.16264,-20.32528l-139.56691,-168.02231l-139.56691,-168.02231l-18.29275,39.97305c-94.8513,212.73792 -154.47212,496.61431 -155.14963,735.77509l0,93.49628l218.8355,-205.28532c182.92751,-172.08736 218.15799,-207.99535 216.80297,-222.22305zm3575.21655,247.9684c-11.51766,-182.92751 -39.29554,-331.30205 -91.46375,-488.4842c-25.74535,-79.26859 -90.78625,-237.12825 -94.8513,-232.38569c-0.67751,1.35502 -23.71283,79.26859 -50.8132,173.44238l-48.78067,171.40985l17.61524,16.93773c34.55297,35.23048 39.29554,90.78625 10.16264,128.04926c-14.2277,17.61524 -14.2277,17.61524 -1.35502,32.52045c7.4526,8.13011 69.10595,81.30112 137.53439,162.60223c67.75093,81.30112 124.66171,146.34201 126.01673,144.98699c1.35502,-1.35502 -0.67751,-50.13569 -4.06506,-109.079zm-434.96097,-329.94703l14.2277,-27.77788l-308.94424,-529.81227c-170.05483,-290.65149 -312.33179,-533.19982 -316.39684,-537.94238c-6.09758,-6.09758 -12.87268,-6.77509 -28.45539,-1.35502l-19.64777,6.77509l-117.88662,457.99628l-117.88662,457.31877l23.71283,25.06784c13.55019,13.55019 27.10037,34.55297 30.48792,45.39312l6.77509,20.32528l395.66543,55.55576c217.48048,29.81041 402.44052,55.55576 409.89312,55.55576c10.84015,0.67751 18.29275,-6.77509 28.45539,-27.10037zm-2720.19982,-98.23885c203.9303,-73.84851 221.54554,-81.30112 221.54554,-96.20632c0,-8.13011 4.74257,-26.42286 10.16264,-39.29554l10.16264,-24.39033l-278.45632,-317.75186c-153.1171,-175.47491 -279.81134,-317.07435 -281.16636,-315.71933c-1.35502,1.35502 0.67751,148.37454 4.06506,327.23699c3.38755,178.18494 6.77509,364.5 6.77509,413.28067l0,89.43123l19.64777,8.13011c10.84015,4.06506 26.42286,15.58271 35.23048,24.39033c8.80762,9.48513 18.97026,15.58271 23.03532,14.2277c3.38755,-1.35502 106.36896,-38.61803 228.99814,-83.33364zm-350.27231,-279.81134c-2.03253,-177.50744 -6.09758,-357.0474 -8.13011,-399.05298c-5.42007,-90.78625 -1.35502,-91.46375 -81.30112,13.55019c-63.00836,81.97862 -130.08178,188.34758 -184.28253,289.97398l-41.32807,77.91357l145.6645,174.11989c122.62918,146.34201 147.69703,172.76487 159.21468,170.05483l14.9052,-4.06506l-4.74257,-322.49442zm3180.90614,311.65428c2.03253,-2.03253 29.1329,-90.10874 59.62082,-195.80019l55.55576,-191.05762l-42.00558,-73.171c-50.8132,-88.07621 -118.56413,-188.34758 -179.53996,-265.58364c-94.8513,-119.24164 -348.23978,-357.72491 -403.11803,-378.05019c-8.80762,-3.38755 -48.78067,-8.80762 -88.07621,-11.51766l-71.13848,-4.74257l-10.84015,27.10037l-10.84015,27.10037l313.00929,539.2974l312.33179,539.2974l30.48792,-4.06506c16.93773,-2.71004 32.52045,-6.09758 34.55297,-8.80762zm-1176.15614,-46.74814c-4.06506,-3.38755 -244.58086,-130.08178 -535.23234,-282.52138c-290.65149,-151.76208 -546.07249,-285.90892 -567.75279,-297.42658c-35.23048,-18.97026 -39.97305,-19.64777 -47.42565,-10.16264c-11.51766,14.9052 -52.84573,39.97305 -67.07342,39.97305c-12.87268,0 -10.84015,-9.48513 -46.07063,203.25279c-19.64777,114.49907 -25.74535,166.66729 -20.32528,168.02231c18.29275,6.09758 42.00558,33.87546 50.13569,58.94331c7.4526,21.6803 12.87268,27.77788 29.1329,29.81041c45.39312,5.42007 1140.24814,94.17379 1174.12361,94.8513c20.32528,0 33.87546,-2.03253 30.48792,-4.74257zm60.97584,-42.00558c6.77509,-7.4526 25.74535,-17.61524 42.00558,-21.00279c25.74535,-6.77509 29.81041,-10.84015 35.23048,-32.52045c60.97584,-234.41822 225.6106,-867.2119 228.32063,-875.34201c2.03253,-7.4526 -4.74257,-15.58271 -19.64777,-24.39033c-12.87268,-7.4526 -28.45539,-25.74535 -35.90799,-40.65056l-12.87268,-27.10037l-711.38476,201.22026c-581.98048,165.31227 -711.38476,203.9303 -711.38476,213.41543c0,8.13011 161.92472,95.52881 582.65799,315.04182c320.4619,167.3448 584.69052,304.20167 586.72305,304.20167c2.03253,0.67751 9.48513,-5.42007 16.26022,-12.87268zm-1406.5093,-142.27695c8.80762,0 14.2277,-6.09758 16.93773,-18.29275c6.77509,-31.84294 58.2658,-336.72212 58.2658,-344.17472c0,-3.38755 -8.80762,-12.87268 -19.64777,-19.64777c-23.71283,-16.26022 -38.61803,-39.97305 -44.71561,-73.171c-2.71004,-14.9052 -9.48513,-26.42286 -16.26022,-28.45539c-96.88383,-27.77788 -583.3355,-159.89219 -589.43309,-159.89219c-4.74257,0 -7.4526,3.38755 -6.09758,7.4526c1.35502,4.06506 128.72677,151.76208 283.19889,327.9145c236.45074,270.32621 281.84387,319.78439 292.00651,314.36431c6.77509,-3.38755 18.29275,-6.09758 25.74535,-6.09758zm932.25279,-721.5474c502.03439,-140.92193 713.41729,-203.25279 718.15985,-211.3829c4.06506,-6.09758 16.26022,-21.6803 27.77788,-35.23048l21.00279,-23.71283l-20.32528,-46.07063c-23.03532,-52.16822 -16.93773,-48.10316 -138.88941,-94.17379c-210.02788,-78.59108 -442.41357,-121.95167 -666.66915,-123.9842c-65.7184,0 -120.59665,0.67751 -122.62918,2.71004c-60.29833,71.81599 -553.52509,713.41729 -553.52509,720.19238c0,12.19517 6.09758,18.29275 15.58271,14.2277c4.74257,-1.35502 328.59201,-92.81877 719.51487,-202.57528zm-893.63476,178.86245c21.00279,-23.71283 54.87825,-34.55297 90.78625,-29.81041l31.16543,4.06506l257.45353,-329.94703c140.92193,-181.57249 260.84108,-336.04461 265.58364,-342.8197c8.80762,-11.51766 6.77509,-12.19517 -30.48792,-8.13011c-433.60595,44.0381 -858.40428,234.41822 -1173.4461,525.74721l-41.32807,38.61803l28.45539,8.13011c183.60502,50.13569 545.39498,147.69703 551.49257,147.69703c4.06506,0.67751 12.87268,-6.09758 20.32528,-13.55019zm1906.51116,-381.43773c0,-3.38755 -151.08457,-93.49628 -188.34758,-111.78903c-16.26022,-8.80762 -31.16543,-13.55019 -33.19796,-12.19517c-1.35502,2.03253 2.03253,12.87268 7.4526,24.39033c8.13011,14.9052 18.29275,22.35781 39.97305,28.45539c18.29275,4.74257 37.94052,17.61524 54.87825,35.23048c23.71283,25.06784 29.81041,27.77788 71.13848,31.84294c24.39033,2.71004 45.39312,5.42007 46.74814,6.09758c0.67751,0 1.35502,-0.67751 1.35502,-2.03253z"/>
  </g>
  <text transform="matrix(1.28272 0 0 1.25585 -195.444 -44.8322)" stroke="null" font-weight="bold" xml:space="preserve" text-anchor="start" font-family="'Sora'" font-size="120" id="svg_3" y="271.8677" x="535.62034" stroke-width="0" fill="#326273">ZHULIN'S BLOG</text>
  <text stroke="null" xml:space="preserve" text-anchor="start" font-family="'Sora'" font-size="50" id="svg_4" y="384.25019" x="500.00501" stroke-width="0" fill="#879daa">https://Juraste.github.io</text>
 </g>
</svg>